<svg xmlns="http://www.w3.org/2000/svg" viewBox="0 0 175.96 210.15"><defs><style>.cls-1{fill:#f08900;}.cls-2{fill:#fc9d21;}.cls-3{fill:#fcab42;}.cls-4{fill:#bdbdbd;}.cls-5{fill:#dedede;}.cls-6{fill:#393e66;}</style></defs><title>contactf</title><g id="Layer_2" data-name="Layer 2"><g id="OBJECT"><rect class="cls-1" y="89.64" width="175.96" height="120.51"/><polygon class="cls-2" points="0 210.15 87.98 138.66 175.96 210.15 0 210.15"/><polygon class="cls-3" points="0 89.64 87.98 155.46 175.96 89.64 0 89.64"/><path class="cls-4" d="M84,30H54.13A16.37,16.37,0,0,0,37.76,46.4V67.58A16.35,16.35,0,0,0,48.79,83l.52,11.36L64,84H84a16.37,16.37,0,0,0,16.37-16.37V46.4A16.37,16.37,0,0,0,84,30Z"/><path class="cls-5" d="M120,0H80.66a21.6,21.6,0,0,0-21.6,21.6V49.55a21.59,21.59,0,0,0,21.6,21.59H107l19.4,13.79.69-15a21.59,21.59,0,0,0,14.56-20.4V21.6A21.6,21.6,0,0,0,120,0Z"/><path class="cls-6" d="M106.81,52.78a18.22,18.22,0,0,1-8.9,2c-8.2,0-15.15-6-15.15-15.6C82.76,28.88,89.91,20,101,20c8.7,0,14.56,6.1,14.56,14.45,0,7.5-4.21,11.9-8.91,11.9-2,0-3.85-1.35-3.7-4.4h-.2c-1.75,3-4.05,4.4-7.05,4.4S90.31,44,90.31,40a11.81,11.81,0,0,1,11.85-11.85,13.18,13.18,0,0,1,5.35,1.05l-1.7,9.05c-.75,3.8-.15,5.55,1.5,5.6,2.55,0,5.4-3.35,5.4-9.15,0-7.25-4.35-12.45-12.1-12.45-8.15,0-15,6.45-15,16.6,0,8.35,5.45,13.5,12.85,13.5A15.6,15.6,0,0,0,106,50.63Zm-2.75-21.6a8.64,8.64,0,0,0-2.5-.35c-4.4,0-8,4.15-8,9,0,2.2,1.1,3.8,3.3,3.8,2.9,0,5.55-3.7,6.1-6.8Z"/></g></g></svg>