<svg xmlns="http://www.w3.org/2000/svg" viewBox="0 0 285.34 323.78"><defs><style>.cls-1{fill:#f08900;}.cls-2{fill:#fc9d21;}.cls-3{fill:#fcab42;}.cls-4{fill:#bdbdbd;}.cls-5{fill:#dedede;}.cls-6{font-size:50px;font-family:Montserrat-Black, Montserrat Black;font-weight:800;}.cls-12,.cls-6{fill:#393e66;}.cls-7{fill:#cf3a53;}.cls-8{fill:#992b3e;}.cls-9{fill:#f24561;}.cls-10{fill:#571823;}.cls-11{fill:none;stroke:#bdbdbd;stroke-miterlimit:10;stroke-width:3px;}.cls-12{opacity:0.4;}.cls-13{fill:#3e599e;}.cls-14{fill:#24335c;}</style></defs><title>contactp</title><g id="Layer_2" data-name="Layer 2"><g id="OBJECT"><rect class="cls-1" y="89.64" width="175.96" height="120.51"/><polygon class="cls-2" points="0 210.15 87.98 138.66 175.96 210.15 0 210.15"/><polygon class="cls-3" points="0 89.64 87.98 155.46 175.96 89.64 0 89.64"/><path class="cls-4" d="M84,30H54.13A16.37,16.37,0,0,0,37.76,46.4V67.58A16.35,16.35,0,0,0,48.79,83l.52,11.36L64,84H84a16.37,16.37,0,0,0,16.37-16.37V46.4A16.37,16.37,0,0,0,84,30Z"/><path class="cls-5" d="M120,0H80.66a21.6,21.6,0,0,0-21.6,21.6V49.55a21.59,21.59,0,0,0,21.6,21.59H107l19.4,13.79.69-15a21.59,21.59,0,0,0,14.56-20.4V21.6A21.6,21.6,0,0,0,120,0Z"/><text class="cls-6" transform="translate(80.61 49.58)">@</text><path class="cls-7" d="M224.3,39.93h26.49a25.94,25.94,0,0,1,25.94,25.94V239.44a25.94,25.94,0,0,1-25.94,25.94H224.3a13.17,13.17,0,0,1-13.17-13.17V53.1A13.17,13.17,0,0,1,224.3,39.93Z"/><rect class="cls-8" x="210.04" y="90.65" width="31.78" height="124.01"/><rect class="cls-9" x="186.23" y="39.93" width="58.91" height="67.78" rx="13.17"/><rect class="cls-7" x="194.75" y="48.55" width="41.86" height="50.56" rx="10.46"/><path class="cls-10" d="M212.52,57.39A2.48,2.48,0,1,1,210,54.91,2.48,2.48,0,0,1,212.52,57.39Z"/><path class="cls-10" d="M223.8,57.39a2.48,2.48,0,1,1-2.48-2.48A2.48,2.48,0,0,1,223.8,57.39Z"/><path class="cls-10" d="M206.88,65.61a2.48,2.48,0,1,1-2.48-2.49A2.48,2.48,0,0,1,206.88,65.61Z"/><path class="cls-10" d="M218.16,65.61a2.48,2.48,0,1,1-2.48-2.49A2.48,2.48,0,0,1,218.16,65.61Z"/><path class="cls-10" d="M229.45,65.61A2.49,2.49,0,1,1,227,63.12,2.49,2.49,0,0,1,229.45,65.61Z"/><path class="cls-10" d="M201.24,73.82a2.48,2.48,0,1,1-2.48-2.48A2.49,2.49,0,0,1,201.24,73.82Z"/><path class="cls-10" d="M212.52,73.82A2.48,2.48,0,1,1,210,71.34,2.49,2.49,0,0,1,212.52,73.82Z"/><path class="cls-10" d="M223.8,73.82a2.48,2.48,0,1,1-2.48-2.48A2.49,2.49,0,0,1,223.8,73.82Z"/><path class="cls-10" d="M235.09,73.82a2.49,2.49,0,1,1-2.49-2.48A2.5,2.5,0,0,1,235.09,73.82Z"/><path class="cls-10" d="M206.88,82a2.48,2.48,0,1,1-2.48-2.48A2.48,2.48,0,0,1,206.88,82Z"/><path class="cls-10" d="M218.16,82a2.48,2.48,0,1,1-2.48-2.48A2.48,2.48,0,0,1,218.16,82Z"/><path class="cls-10" d="M229.45,82A2.49,2.49,0,1,1,227,79.56,2.49,2.49,0,0,1,229.45,82Z"/><path class="cls-10" d="M212.52,90.26A2.48,2.48,0,1,1,210,87.78,2.48,2.48,0,0,1,212.52,90.26Z"/><path class="cls-10" d="M223.8,90.26a2.48,2.48,0,1,1-2.48-2.48A2.48,2.48,0,0,1,223.8,90.26Z"/><rect class="cls-9" x="186.23" y="197.59" width="58.91" height="67.78" rx="13.17"/><rect class="cls-7" x="194.75" y="206.2" width="41.86" height="50.56" rx="10.46"/><path class="cls-10" d="M212.52,215.05a2.48,2.48,0,1,1-2.48-2.48A2.48,2.48,0,0,1,212.52,215.05Z"/><path class="cls-10" d="M223.8,215.05a2.48,2.48,0,1,1-2.48-2.48A2.48,2.48,0,0,1,223.8,215.05Z"/><path class="cls-10" d="M206.88,223.27a2.48,2.48,0,1,1-2.48-2.49A2.48,2.48,0,0,1,206.88,223.27Z"/><path class="cls-10" d="M218.16,223.27a2.48,2.48,0,1,1-2.48-2.49A2.48,2.48,0,0,1,218.16,223.27Z"/><path class="cls-10" d="M229.45,223.27a2.49,2.49,0,1,1-2.49-2.49A2.49,2.49,0,0,1,229.45,223.27Z"/><path class="cls-10" d="M201.24,231.48a2.48,2.48,0,1,1-2.48-2.48A2.49,2.49,0,0,1,201.24,231.48Z"/><path class="cls-10" d="M212.52,231.48A2.48,2.48,0,1,1,210,229,2.49,2.49,0,0,1,212.52,231.48Z"/><path class="cls-10" d="M223.8,231.48a2.48,2.48,0,1,1-2.48-2.48A2.49,2.49,0,0,1,223.8,231.48Z"/><path class="cls-10" d="M235.09,231.48A2.49,2.49,0,1,1,232.6,229,2.5,2.5,0,0,1,235.09,231.48Z"/><path class="cls-10" d="M206.88,239.7a2.48,2.48,0,1,1-2.48-2.48A2.48,2.48,0,0,1,206.88,239.7Z"/><path class="cls-10" d="M218.16,239.7a2.48,2.48,0,1,1-2.48-2.48A2.48,2.48,0,0,1,218.16,239.7Z"/><path class="cls-10" d="M229.45,239.7a2.49,2.49,0,1,1-2.49-2.48A2.49,2.49,0,0,1,229.45,239.7Z"/><path class="cls-10" d="M212.52,247.92a2.48,2.48,0,1,1-2.48-2.48A2.48,2.48,0,0,1,212.52,247.92Z"/><path class="cls-10" d="M223.8,247.92a2.48,2.48,0,1,1-2.48-2.48A2.48,2.48,0,0,1,223.8,247.92Z"/><path class="cls-11" d="M88,210.15v15.79A13.76,13.76,0,0,1,74.22,239.7H46.29a8.53,8.53,0,0,0-8.53,8.53h0a8.53,8.53,0,0,0,8.53,8.53h75a8.44,8.44,0,0,1,8.44,8.44h0a8.43,8.43,0,0,1-8.44,8.43H74.1a15,15,0,0,0-15,15h0a15,15,0,0,0,15,15H222.54a15.16,15.16,0,0,0,15.16-15.16V265.38"/><path id="Path2" class="cls-12" d="M164,230.89a38.94,38.94,0,0,0,11,27l8.15-6.34a28.5,28.5,0,0,1,0-41.34L175,203.87A39,39,0,0,0,164,230.89Z"/><path id="Path3" class="cls-12" d="M141.41,230.89a61.44,61.44,0,0,0,15.7,40.91l8.1-6.31a50.91,50.91,0,0,1,0-69.21l-8.1-6.3A61.4,61.4,0,0,0,141.41,230.89Z"/><path class="cls-13" d="M278.69,323.78H211.44a6.65,6.65,0,0,1-6.65-6.65V296.08a6.64,6.64,0,0,1,6.64-6.64h0V276.36l12.4,13.08H278.7a6.64,6.64,0,0,1,6.64,6.65v21.05A6.64,6.64,0,0,1,278.69,323.78Z"/><circle class="cls-14" cx="269.12" cy="305.81" r="5.34" transform="translate(-67.17 535.7) rotate(-83.01)"/><circle class="cls-14" cx="245.07" cy="305.91" r="5.34" transform="translate(-144.53 262.89) rotate(-45)"/><circle class="cls-14" cx="221.01" cy="306" r="5.34" transform="translate(-151.65 245.9) rotate(-45)"/></g></g></svg>