<svg xmlns="http://www.w3.org/2000/svg" viewBox="0 0 90.5 225.44"><defs><style>.cls-1{fill:#cf3a53;}.cls-2{fill:#992b3e;}.cls-3{fill:#f24561;}.cls-4{fill:#571823;}</style></defs><title>phone</title><g id="Layer_2" data-name="Layer 2"><g id="OBJECT"><path class="cls-1" d="M38.07,0H64.56A25.94,25.94,0,0,1,90.5,25.94V199.5a25.94,25.94,0,0,1-25.94,25.94H38.07a13.17,13.17,0,0,1-13.17-13.17V13.17A13.17,13.17,0,0,1,38.07,0Z"/><rect class="cls-2" x="23.82" y="50.71" width="31.78" height="124.01"/><rect class="cls-3" width="58.91" height="67.78" rx="13.17"/><rect class="cls-1" x="8.53" y="8.61" width="41.86" height="50.56" rx="10.46"/><path class="cls-4" d="M26.3,17.46A2.49,2.49,0,1,1,23.82,15,2.48,2.48,0,0,1,26.3,17.46Z"/><path class="cls-4" d="M37.58,17.46A2.49,2.49,0,1,1,35.1,15,2.48,2.48,0,0,1,37.58,17.46Z"/><path class="cls-4" d="M20.66,25.68a2.49,2.49,0,1,1-2.48-2.49A2.48,2.48,0,0,1,20.66,25.68Z"/><path class="cls-4" d="M31.94,25.68a2.49,2.49,0,1,1-2.48-2.49A2.48,2.48,0,0,1,31.94,25.68Z"/><path class="cls-4" d="M43.22,25.68a2.48,2.48,0,1,1-2.48-2.49A2.48,2.48,0,0,1,43.22,25.68Z"/><path class="cls-4" d="M15,33.89a2.49,2.49,0,1,1-2.49-2.48A2.48,2.48,0,0,1,15,33.89Z"/><path class="cls-4" d="M26.3,33.89a2.49,2.49,0,1,1-2.48-2.48A2.48,2.48,0,0,1,26.3,33.89Z"/><path class="cls-4" d="M37.58,33.89a2.49,2.49,0,1,1-2.48-2.48A2.48,2.48,0,0,1,37.58,33.89Z"/><path class="cls-4" d="M48.86,33.89a2.48,2.48,0,1,1-2.48-2.48A2.48,2.48,0,0,1,48.86,33.89Z"/><path class="cls-4" d="M20.66,42.11a2.49,2.49,0,1,1-2.48-2.48A2.48,2.48,0,0,1,20.66,42.11Z"/><path class="cls-4" d="M31.94,42.11a2.49,2.49,0,1,1-2.48-2.48A2.48,2.48,0,0,1,31.94,42.11Z"/><path class="cls-4" d="M43.22,42.11a2.48,2.48,0,1,1-2.48-2.48A2.48,2.48,0,0,1,43.22,42.11Z"/><path class="cls-4" d="M26.3,50.33a2.49,2.49,0,1,1-2.48-2.49A2.48,2.48,0,0,1,26.3,50.33Z"/><path class="cls-4" d="M37.58,50.33a2.49,2.49,0,1,1-2.48-2.49A2.48,2.48,0,0,1,37.58,50.33Z"/><rect class="cls-3" y="157.66" width="58.91" height="67.78" rx="13.17"/><rect class="cls-1" x="8.53" y="166.27" width="41.86" height="50.56" rx="10.46"/><path class="cls-4" d="M26.3,175.12a2.49,2.49,0,1,1-2.48-2.48A2.48,2.48,0,0,1,26.3,175.12Z"/><path class="cls-4" d="M37.58,175.12a2.49,2.49,0,1,1-2.48-2.48A2.48,2.48,0,0,1,37.58,175.12Z"/><path class="cls-4" d="M20.66,183.33a2.49,2.49,0,1,1-2.48-2.48A2.48,2.48,0,0,1,20.66,183.33Z"/><path class="cls-4" d="M31.94,183.33a2.49,2.49,0,1,1-2.48-2.48A2.48,2.48,0,0,1,31.94,183.33Z"/><path class="cls-4" d="M43.22,183.33a2.48,2.48,0,1,1-2.48-2.48A2.48,2.48,0,0,1,43.22,183.33Z"/><path class="cls-4" d="M15,191.55a2.49,2.49,0,1,1-2.49-2.48A2.48,2.48,0,0,1,15,191.55Z"/><path class="cls-4" d="M26.3,191.55a2.49,2.49,0,1,1-2.48-2.48A2.48,2.48,0,0,1,26.3,191.55Z"/><path class="cls-4" d="M37.58,191.55a2.49,2.49,0,1,1-2.48-2.48A2.48,2.48,0,0,1,37.58,191.55Z"/><path class="cls-4" d="M48.86,191.55a2.48,2.48,0,1,1-2.48-2.48A2.48,2.48,0,0,1,48.86,191.55Z"/><path class="cls-4" d="M20.66,199.77a2.49,2.49,0,1,1-2.48-2.48A2.48,2.48,0,0,1,20.66,199.77Z"/><path class="cls-4" d="M31.94,199.77a2.49,2.49,0,1,1-2.48-2.48A2.48,2.48,0,0,1,31.94,199.77Z"/><path class="cls-4" d="M43.22,199.77a2.48,2.48,0,1,1-2.48-2.48A2.48,2.48,0,0,1,43.22,199.77Z"/><path class="cls-4" d="M26.3,208a2.49,2.49,0,1,1-2.48-2.49A2.48,2.48,0,0,1,26.3,208Z"/><path class="cls-4" d="M37.58,208a2.49,2.49,0,1,1-2.48-2.49A2.48,2.48,0,0,1,37.58,208Z"/></g></g></svg>